<svg xmlns="http://www.w3.org/2000/svg" width="32" height="32" viewBox="0 0 32 32">
  <defs>
    <style>
      .cls-1 {
        fill: #464774;
        fill-rule: evenodd;
      }
    </style>
  </defs>
  <path class="cls-1" d="M740.5,683.5h-32V653.594h32V683.5Zm-30.224-1.776h28.446V655.369H710.277v26.356Zm29.335-19.846H709.388V660.1h30.224v1.775Zm-6.348-4.935h-1.777V651.5h1.777v5.445Zm-15.751,0h-1.777V651.5h1.777v5.445Zm-2.478,11.664-2.149-1.922,0.659-.735,1.445,1.293,3.2-3.265,0.706,0.689Zm8.622,0-2.149-1.922,0.659-.735,1.445,1.293,3.2-3.265,0.706,0.689Zm8.622,0-2.149-1.922,0.659-.735,1.445,1.293,3.2-3.265,0.706,0.689ZM715.035,673.8l-2.149-1.922,0.659-.735,1.445,1.293,3.2-3.265,0.706,0.689Zm8.622,0-2.149-1.922,0.659-.735,1.445,1.293,3.2-3.265,0.706,0.689Zm8.622,0-2.149-1.922,0.659-.735,1.445,1.293,3.2-3.265,0.706,0.689Zm-17.244,5.192-2.149-1.922,0.659-.735,1.445,1.293,3.2-3.265,0.706,0.69Zm11.066,0.326h-3.2v-3.2h3.2v3.2Zm8.622,0h-3.2v-3.2h3.2v3.2Z" transform="translate(-708.5 -651.5)"/>
</svg>
