<svg xmlns="http://www.w3.org/2000/svg" width="34.062" height="32" viewBox="0 0 34.062 32">
  <defs>
    <style>
      .cls-1 {
        fill: #464774;
        fill-rule: evenodd;
      }
    </style>
  </defs>
  <path class="cls-1" d="M577.467,522.761H561.956v-2.2h15.511v2.2Zm-7.15,5.861h-8.24v-2.2h8.24v2.2Zm-2.3,5.861H562.2v-2.2h5.817v2.2Zm4.423,7.814H559.653V514.7h20.6v7.382c0.379-.036.763-0.056,1.152-0.056,0.347,0,.69.018,1.03,0.047v-9.571H557.472V544.5h17.569A12.132,12.132,0,0,1,572.438,542.3Zm8.968-18.315a10.2,10.2,0,1,0,10.118,10.2A10.158,10.158,0,0,0,581.406,523.982Zm6.621,8.618-7.271,6.838a1.085,1.085,0,0,1-.744.295h-0.05a1.089,1.089,0,0,1-.764-0.366l-4-4.518a1.106,1.106,0,0,1,.088-1.552,1.085,1.085,0,0,1,1.54.089l3.256,3.679,6.456-6.071a1.084,1.084,0,0,1,1.541.054A1.1,1.1,0,0,1,588.027,532.6Z" transform="translate(-557.469 -512.5)"/>
</svg>
