<svg xmlns="http://www.w3.org/2000/svg" width="32" height="32" viewBox="0 0 32 32">
  <defs>
    <style>
      .cls-1 {
        fill: #464774;
        fill-rule: evenodd;
      }
    </style>
  </defs>
  <path class="cls-1" d="M568.93,675.746a11.9,11.9,0,0,1-1.358-.222,11.652,11.652,0,1,1,11.581-18.719l-1.419,1.156a9.815,9.815,0,1,0-8.616,15.962Zm-2.176-6.359-1.262-1.325,4.173-3.992-0.19-5.9,1.828-.06,0.216,6.72Zm19.6-2.383-0.032-.7h0l-0.033-.718h-0.03c-0.435-3.358-2.8-5.895-5.615-5.895a5.193,5.193,0,0,0-5.069,3.935l-0.062.031-0.1.273a8.4,8.4,0,0,0-.462,2.774c0,3.866,2.552,7.012,5.688,7.012,3.053,0,5.551-2.981,5.682-6.707h0.028Zm-5.71,5.283c-2.352,0-4.266-2.506-4.266-5.587a7.046,7.046,0,0,1,.286-2.007,1.5,1.5,0,0,1,1.417.325l0,0,0.049,0.034c0.1,0.075.206,0.148,0.315,0.219l0.147,0.089c0.081,0.049.161,0.1,0.245,0.146,0.057,0.032.116,0.062,0.175,0.092,0.079,0.042.158,0.085,0.24,0.125,0.063,0.031.128,0.06,0.192,0.089,0.08,0.037.16,0.075,0.242,0.11s0.136,0.057.205,0.085,0.162,0.066.244,0.1,0.143,0.052.215,0.078,0.164,0.059.247,0.087l0.221,0.071,0.249,0.077,0.225,0.064c0.083,0.023.166,0.046,0.249,0.067s0.152,0.039.228,0.057,0.164,0.04.246,0.058,0.153,0.035.23,0.051l0.243,0.049c0.076,0.015.151,0.03,0.227,0.043l0.239,0.042,0.223,0.036,0.232,0.033,0.218,0.029,0.223,0.025L584.069,667l0.212,0.018,0.2,0.015c0.068,0,.134.007,0.2,0.011l0.19,0.009h0.031C584.767,669.968,582.91,672.287,580.648,672.287Zm7.039,1.934h-3.421a14.82,14.82,0,0,1,.089,1.628c0,4.1-1.637,7.43-3.656,7.43s-3.657-3.326-3.657-7.43a15.071,15.071,0,0,1,.089-1.628h-3.42a2.918,2.918,0,0,0-2.814,3.011v3.031c0,1.663,1.26,3.452,2.814,3.452,0,0,5.44,1.767,13.976,0a3.631,3.631,0,0,0,2.814-3.452v-3.031A2.918,2.918,0,0,0,587.687,674.221Zm-6.154.916h-1.669a0.791,0.791,0,0,0-.79.792v1.062a0.79,0.79,0,0,0,.609.769v5.926h2.032V677.76a0.79,0.79,0,0,0,.609-0.769v-1.062A0.792,0.792,0,0,0,581.533,675.137Z" transform="translate(-558.5 -652.5)"/>
</svg>
