<svg xmlns="http://www.w3.org/2000/svg" width="28" height="32" viewBox="0 0 28 32">
  <defs>
    <style>
      .cls-1 {
        fill: #464774;
        fill-rule: evenodd;
      }
    </style>
  </defs>
  <path class="cls-1" d="M582.905,805.9h-1.769c0-5.574-3.421-10.108-7.626-10.108s-7.626,4.534-7.626,10.108h-1.769c0-6.563,4.215-11.9,9.395-11.9S582.905,799.337,582.905,805.9Zm-17.518-2.419h-0.411a0.849,0.849,0,0,0-.833.723,1.959,1.959,0,0,0-.522-0.074,2.5,2.5,0,0,0,0,4.963,1.958,1.958,0,0,0,.522-0.073,0.849,0.849,0,0,0,.833.723h0.411a0.853,0.853,0,0,0,.846-0.858v-4.546A0.852,0.852,0,0,0,565.387,803.481Zm16.322-.248h0.412a0.848,0.848,0,0,1,.832.723,1.97,1.97,0,0,1,.522-0.073,2.5,2.5,0,0,1,0,4.963,1.971,1.971,0,0,1-.522-0.074,0.848,0.848,0,0,1-.832.723h-0.412a0.851,0.851,0,0,1-.845-0.858v-4.546A0.851,0.851,0,0,1,581.709,803.233Zm-8.2-5.324c-3.413,0-6.179,3.578-6.179,7.991,0,4.22,2.529,7.673,5.734,7.969a1.817,1.817,0,0,1,2.39-.384c2.459-1.054,4.234-4.05,4.234-7.585C579.689,801.487,576.923,797.909,573.51,797.909Zm1.2,17.651-0.093-.992c3.243-.314,5.424-1.259,6.3-2.732a3.365,3.365,0,0,0,.275-2.757l0.911-.374a4.378,4.378,0,0,1-.346,3.649C580.7,814.131,578.328,815.21,574.712,815.56Zm0.685-.5a0.92,0.92,0,1,1-.92-0.933A0.927,0.927,0,0,1,575.4,815.064Zm12.5,8.451c-1.059-3.207-3.645-8.379-9.309-8.379,0,0-.849,1.914-4.576,2.392l-0.034.084v-0.084c-3.727-.478-4.576-2.392-4.576-2.392-5.664,0-8.25,5.172-9.309,8.379A1.878,1.878,0,0,0,561.856,826h12.126v-0.075L574.016,826h12.126A1.879,1.879,0,0,0,587.9,823.515Z" transform="translate(-560 -794)"/>
</svg>
