<svg xmlns="http://www.w3.org/2000/svg" width="64" height="16" viewBox="0 0 64 16">
  <defs>
    <style>
      .cls-1 {
        fill: #464774;
        fill-rule: evenodd;
      }
    </style>
  </defs>
  <path class="cls-1" d="M705.384,533.925a5.716,5.716,0,0,1-2.406,1.5,10.2,10.2,0,0,1-3.471.569,6.127,6.127,0,0,1-4.639-1.811,7.418,7.418,0,0,1-1.858-5.042L693,527.837a9.133,9.133,0,0,1,.772-3.887,5.806,5.806,0,0,1,2.207-2.557,6.155,6.155,0,0,1,3.325-.9,6.459,6.459,0,0,1,4.288,1.289,5.5,5.5,0,0,1,1.782,3.846h-3.431a2.883,2.883,0,0,0-.792-1.8,2.52,2.52,0,0,0-1.725-.539,2.314,2.314,0,0,0-2.071,1.16,6.275,6.275,0,0,0-.741,3.313v0.911a6.154,6.154,0,0,0,.756,3.39,2.655,2.655,0,0,0,2.38,1.134,2.96,2.96,0,0,0,2.071-.631v-2.34h-2.477v-2.5h6.04v6.191Zm7.227,2.07a5.583,5.583,0,0,1-4.091-1.537,5.366,5.366,0,0,1-1.563-4v-0.289a6.987,6.987,0,0,1,.625-3.034A4.626,4.626,0,0,1,709.4,525.1a5.409,5.409,0,0,1,2.842-.72,4.707,4.707,0,0,1,3.654,1.465,5.831,5.831,0,0,1,1.34,4.085v1.356h-6.8a2.527,2.527,0,0,0,.8,1.48,2.356,2.356,0,0,0,1.6.539,3.05,3.05,0,0,0,2.537-1.16l1.564,1.884a4.385,4.385,0,0,1-1.812,1.434A6.032,6.032,0,0,1,712.611,536Zm-0.386-8.924q-1.5,0-1.786,2.029h3.451v-0.269a1.747,1.747,0,0,0-.416-1.3A1.639,1.639,0,0,0,712.225,527.071Zm9.532-2.485,0.111,1.315a3.7,3.7,0,0,1,3.137-1.522,3.1,3.1,0,0,1,2.563,1.046,5.046,5.046,0,0,1,.878,3.147v7.216h-3.431v-7.071a1.91,1.91,0,0,0-.335-1.247,1.529,1.529,0,0,0-1.218-.4,1.623,1.623,0,0,0-1.492.808v7.909h-3.421v-11.2h3.208Zm8.557-2.888a1.572,1.572,0,0,1,.528-1.222,2.21,2.21,0,0,1,2.74,0,1.678,1.678,0,0,1,0,2.444,2.21,2.21,0,0,1-2.74,0A1.572,1.572,0,0,1,730.314,521.7Zm3.634,14.09h-3.431v-11.2h3.431v11.2Zm7.42,0.207a5.583,5.583,0,0,1-4.091-1.537,5.366,5.366,0,0,1-1.563-4v-0.289a7,7,0,0,1,.624-3.034,4.632,4.632,0,0,1,1.822-2.034,5.416,5.416,0,0,1,2.843-.72,4.709,4.709,0,0,1,3.654,1.465,5.831,5.831,0,0,1,1.34,4.085v1.356h-6.8a2.522,2.522,0,0,0,.8,1.48,2.353,2.353,0,0,0,1.6.539,3.05,3.05,0,0,0,2.538-1.16l1.563,1.884a4.372,4.372,0,0,1-1.812,1.434A6.024,6.024,0,0,1,741.368,536Zm-0.386-8.924q-1.5,0-1.786,2.029h3.451v-0.269a1.751,1.751,0,0,0-.416-1.3A1.64,1.64,0,0,0,740.982,527.071Zm12.557,0.166H757v2.992h-3.461v4.048h-3.2v-4.048H746.87v-2.992h3.471V523.3h3.2v3.934Z" transform="translate(-693 -520)"/>
</svg>
