<svg xmlns="http://www.w3.org/2000/svg" width="30" height="32" viewBox="0 0 30 32">
  <defs>
    <style>
      .cls-1 {
        fill: #464774;
        fill-rule: evenodd;
      }
    </style>
  </defs>
  <path class="cls-1" d="M719.9,794q0.111,0.9.222,1.809c0.038,0.312.075,0.624,0.108,0.937a0.16,0.16,0,0,0,.139.161,6.407,6.407,0,0,1,1.676.677,0.16,0.16,0,0,0,.211-0.022q1.013-.8,2.029-1.6c0.041-.033.084-0.063,0.119-0.09l1.883,1.869-0.722.911c-0.318.4-.635,0.806-0.958,1.2a0.164,0.164,0,0,0-.021.222,6.484,6.484,0,0,1,.706,1.675,0.177,0.177,0,0,0,.18.156c0.846,0.092,1.692.193,2.538,0.292,0.047,0,.093.018,0.141,0.028v2.639l-1.422.168c-0.41.048-.819,0.1-1.229,0.141a0.2,0.2,0,0,0-.215.178,6.238,6.238,0,0,1-.694,1.645,0.171,0.171,0,0,0,.019.235c0.508,0.633,1.011,1.271,1.515,1.907l0.151,0.192-1.891,1.871-1.366-1.074c-0.26-.2-0.523-0.407-0.78-0.616a0.136,0.136,0,0,0-.182-0.014,6.477,6.477,0,0,1-1.691.682,0.169,0.169,0,0,0-.138.181c-0.1.847-.2,1.693-0.295,2.541a0.167,0.167,0,0,1-.206.181q-1.156-.01-2.315,0a0.15,0.15,0,0,1-.183-0.167c-0.1-.864-0.2-1.726-0.3-2.59a0.19,0.19,0,0,0-.167-0.19,6.277,6.277,0,0,1-1.576-.669,0.176,0.176,0,0,0-.237.023c-0.687.546-1.377,1.086-2.067,1.628-0.041.033-.084,0.064-0.115,0.087l-1.882-1.867c0.022-.03.054-0.077,0.089-0.121,0.541-.682,1.08-1.367,1.626-2.044a0.228,0.228,0,0,0,.031-0.305,6.677,6.677,0,0,1-.635-1.533,0.208,0.208,0,0,0-.124-0.131c-0.936-.116-1.872-0.223-2.809-0.332a0.347,0.347,0,0,0-.064,0v-2.655c0.059-.009.117-0.019,0.175-0.025,0.873-.1,1.744-0.2,2.617-0.3a0.219,0.219,0,0,0,.226-0.189,6.047,6.047,0,0,1,.634-1.531,0.169,0.169,0,0,0-.02-0.224c-0.412-.512-0.818-1.028-1.226-1.542l-0.532-.671,1.883-1.87,0.132,0.1c0.689,0.542,1.379,1.082,2.065,1.628a0.174,0.174,0,0,0,.236.016,6.332,6.332,0,0,1,1.591-.671,0.169,0.169,0,0,0,.146-0.171c0.055-.509.117-1.016,0.179-1.524,0.051-.417.105-0.834,0.158-1.251H719.9Zm1.906,9.555a3.16,3.16,0,1,0-3.177,3.143A3.151,3.151,0,0,0,721.806,803.555Zm-6.01,22.262c0-.477-0.008-0.94,0-1.4a0.277,0.277,0,0,0-.2-0.308,3.506,3.506,0,0,1-.622-0.36,0.231,0.231,0,0,0-.308-0.006c-0.4.254-.812,0.5-1.236,0.754l-0.912-1.16c0.106-.1.21-0.2,0.311-0.3,0.263-.258.528-0.515,0.785-0.78a0.219,0.219,0,0,0,.037-0.174c-0.069-.278-0.156-0.553-0.221-0.832a0.173,0.173,0,0,0-.155-0.149c-0.437-.1-0.874-0.21-1.311-0.317-0.051-.012-0.1-0.027-0.164-0.044,0.059-.481.117-0.956,0.177-1.452h0.179c0.439,0,.878,0,1.318.013a0.2,0.2,0,0,0,.218-0.134,7.6,7.6,0,0,1,.4-0.709,0.178,0.178,0,0,0,0-.225c-0.263-.421-0.52-0.845-0.79-1.287l1.162-.906c0.121,0.124.24,0.244,0.359,0.364,0.237,0.239.477,0.476,0.711,0.718a0.146,0.146,0,0,0,.179.041c0.285-.09.572-0.175,0.862-0.247a0.16,0.16,0,0,0,.137-0.145c0.1-.43.209-0.859,0.315-1.289,0.012-.05.029-0.1,0.046-0.16l1.452,0.177c0,0.255,0,.5,0,0.743s-0.007.5,0,.751a0.18,0.18,0,0,0,.075.134c0.308,0.168.622,0.328,0.953,0.5l1.329-.8,0.895,1.139c-0.338.342-.662,0.681-1,1.007a0.219,0.219,0,0,0-.055.274,8.11,8.11,0,0,1,.228.814,0.2,0.2,0,0,0,.177.183c0.458,0.105.914,0.218,1.383,0.332-0.059.487-.117,0.961-0.177,1.455-0.065,0-.122,0-0.178,0-0.418,0-.836,0-1.254-0.007a0.193,0.193,0,0,0-.205.129c-0.137.264-.286,0.523-0.444,0.775a0.168,0.168,0,0,0-.008.211c0.227,0.361.448,0.727,0.671,1.091,0.027,0.044.052,0.09,0.085,0.148l-1.169.912c-0.139-.148-0.275-0.3-0.415-0.44-0.2-.206-0.409-0.407-0.609-0.615a0.159,0.159,0,0,0-.192-0.048c-0.3.091-.6,0.163-0.9,0.247a0.173,0.173,0,0,0-.112.082c-0.125.49-.243,0.981-0.367,1.489Zm-0.346-5.155a1.753,1.753,0,1,0,1.744-1.744A1.752,1.752,0,0,0,715.45,820.662ZM739,815.247a0.765,0.765,0,0,0-.117.039c-0.616.334-1.23,0.672-1.848,1a0.165,0.165,0,0,0-.1.2,5.222,5.222,0,0,1-.015,1.5,0.146,0.146,0,0,0,.106.168q0.893,0.505,1.785,1.015c0.046,0.026.09,0.055,0.149,0.09l-0.859,2.014c-0.114-.031-0.221-0.059-0.327-0.09-0.6-.176-1.2-0.35-1.8-0.53a0.191,0.191,0,0,0-.23.066c-0.335.343-.677,0.68-1.032,1a0.221,0.221,0,0,0-.082.267c0.2,0.7.386,1.4,0.582,2.111l-2.046.822-0.721-1.315c-0.124-.224-0.25-0.447-0.368-0.674a0.16,0.16,0,0,0-.175-0.093c-0.487,0-.973,0-1.459-0.023a0.179,0.179,0,0,0-.2.1c-0.344.608-.694,1.213-1.042,1.819-0.026.046-.054,0.09-0.086,0.143l-2.024-.858c0.087-.3.172-0.591,0.257-0.881,0.129-.44.256-0.881,0.391-1.318a0.183,0.183,0,0,0-.067-0.216c-0.329-.327-0.654-0.659-0.967-1a0.191,0.191,0,0,0-.229-0.069c-0.7.193-1.394,0.381-2.091,0.57-0.04.01-.081,0.018-0.133,0.029-0.274-.677-0.546-1.347-0.821-2.029l0.187-.105q0.93-.505,1.861-1.011a0.171,0.171,0,0,0,.115-0.179c-0.008-.457-0.006-0.915.012-1.372a0.2,0.2,0,0,0-.122-0.222c-0.625-.351-1.247-0.707-1.869-1.062-0.046-.026-0.091-0.054-0.145-0.087,0.287-.671.571-1.336,0.861-2.016l0.884,0.257c0.457,0.133.915,0.264,1.371,0.4a0.171,0.171,0,0,0,.2-0.059q0.48-.492.98-0.965a0.186,0.186,0,0,0,.069-0.216q-0.294-1.054-.58-2.112c-0.011-.04-0.018-0.081-0.03-0.135l2.037-.819c0.054,0.1.1,0.183,0.151,0.271,0.315,0.575.633,1.15,0.943,1.728a0.217,0.217,0,0,0,.235.131q0.681-.016,1.362,0a0.211,0.211,0,0,0,.227-0.118c0.37-.655.746-1.306,1.129-1.975l2.03,0.86c-0.179.608-.354,1.206-0.529,1.8a1.038,1.038,0,0,0-.119.471,1.181,1.181,0,0,0,.347.332c0.236,0.24.476,0.477,0.692,0.733a0.277,0.277,0,0,0,.343.115c0.636-.186,1.279-0.353,1.919-0.527,0.056-.015.113-0.027,0.183-0.043,0.093,0.226.183,0.447,0.273,0.668,0.162,0.4.323,0.8,0.486,1.2,0.018,0.043.045,0.082,0.067,0.123v0.064Zm-7.752,4.552a2.614,2.614,0,1,0-2.609-2.631A2.617,2.617,0,0,0,731.248,819.8Z" transform="translate(-709 -794)"/>
</svg>
